<svg width="192" height="28" viewBox="0 0 192 28" fill="none" xmlns="http://www.w3.org/2000/svg">
<path d="M0 27.2C0 22.72 0 18.1867 0 13.6C0 9.01333 0 4.48 0 0C1.65333 0 3.32 0 5 0C6.68 0 8.34667 0 10 0C10.7733 2.72 11.5333 5.48 12.28 8.28C13.0533 11.0533 13.8133 13.8 14.56 16.52C15.3067 13.8 16.0533 11.0533 16.8 8.28C17.5733 5.48 18.3333 2.72 19.08 0C20.7333 0 22.3867 0 24.04 0C25.6933 0 27.3333 0 28.96 0C28.9867 4.48 29.0133 9.01333 29.04 13.6C29.0667 18.1867 29.0933 22.72 29.12 27.2C28 27.2 26.8667 27.2 25.72 27.2C24.6 27.2 23.48 27.2 22.36 27.2C22.36 24.16 22.36 21.0933 22.36 18C22.36 14.88 22.36 11.8 22.36 8.76C21.56 11.8 20.7467 14.88 19.92 18C19.0933 21.0933 18.28 24.16 17.48 27.2C16.4933 27.2 15.48 27.2 14.44 27.2C13.4267 27.2 12.4133 27.2 11.4 27.2C10.6 24.2133 9.8 21.2 9 18.16C8.2 15.0933 7.4 12.0667 6.6 9.08C6.6 12.0667 6.6 15.0933 6.6 18.16C6.6 21.2 6.6 24.2133 6.6 27.2C5.53333 27.2 4.44 27.2 3.32 27.2C2.2 27.2 1.09333 27.2 0 27.2Z" fill="#915DFF"/>
<path d="M32.3359 27.2C33.7226 22.72 35.1093 18.1867 36.4959 13.6C37.9093 9.01333 39.3093 4.48 40.6959 0C42.2693 0 43.8559 0 45.4559 0C47.0826 0 48.6826 0 50.2559 0C51.6426 4.48 53.0293 9.01333 54.4159 13.6C55.8293 18.1867 57.2293 22.72 58.6159 27.2C57.4693 27.2 56.2959 27.2 55.0959 27.2C53.9226 27.2 52.7493 27.2 51.5759 27.2C51.3093 26.3467 51.0559 25.4933 50.8159 24.64C50.5759 23.76 50.3226 22.8933 50.0559 22.04C48.5359 22.04 47.0026 22.04 45.4559 22.04C43.9359 22.04 42.4159 22.04 40.8959 22.04C40.6293 22.8933 40.3759 23.76 40.1359 24.64C39.8959 25.4933 39.6426 26.3467 39.3759 27.2C38.2293 27.2 37.0559 27.2 35.8559 27.2C34.6826 27.2 33.5093 27.2 32.3359 27.2ZM42.6559 16.08C43.5893 16.08 44.5226 16.08 45.4559 16.08C46.4159 16.08 47.3626 16.08 48.2959 16.08C47.8426 14.5067 47.3759 12.92 46.8959 11.32C46.4159 9.72 45.9493 8.13333 45.4959 6.56C45.0426 8.13333 44.5626 9.72 44.0559 11.32C43.5759 12.92 43.1093 14.5067 42.6559 16.08Z" fill="#915DFF"/>
<path d="M61.825 27.2C61.825 22.72 61.825 18.1867 61.825 13.6C61.825 9.01333 61.825 4.48 61.825 0C63.425 0 65.025 0 66.625 0C68.2517 0 69.865 0 71.465 0C73.4917 0 75.265 0.386666 76.785 1.16C78.305 1.90667 79.4783 2.97333 80.305 4.36C81.1583 5.72 81.585 7.32 81.585 9.16C81.585 10.7333 81.265 12.1333 80.625 13.36C79.985 14.5867 79.1183 15.5867 78.025 16.36C79.0917 18.1467 80.1583 19.96 81.225 21.8C82.3183 23.6133 83.3983 25.4133 84.465 27.2C83.1583 27.2 81.8517 27.2 80.545 27.2C79.2383 27.2 77.9317 27.2 76.625 27.2C75.7983 25.7067 74.9583 24.1867 74.105 22.64C73.2783 21.0933 72.4383 19.5733 71.585 18.08C71.1317 18.08 70.665 18.08 70.185 18.08C69.7317 18.08 69.2783 18.08 68.825 18.08C68.825 19.5733 68.825 21.0933 68.825 22.64C68.825 24.1867 68.825 25.7067 68.825 27.2C67.6783 27.2 66.5183 27.2 65.345 27.2C64.1717 27.2 62.9983 27.2 61.825 27.2ZM71.465 6.32C71.0383 6.32 70.5983 6.32 70.145 6.32C69.7183 6.32 69.2783 6.32 68.825 6.32C68.825 7.30667 68.825 8.29333 68.825 9.28C68.825 10.2667 68.825 11.2533 68.825 12.24C69.3317 12.24 69.8383 12.24 70.345 12.24C70.8517 12.24 71.3583 12.24 71.865 12.24C72.665 12.24 73.3183 11.96 73.825 11.4C74.3317 10.8133 74.585 10.1067 74.585 9.28C74.585 8.42667 74.305 7.72 73.745 7.16C73.2117 6.6 72.4517 6.32 71.465 6.32Z" fill="#915DFF"/>
<path d="M91.4428 27.2C91.4428 23.76 91.4428 20.2933 91.4428 16.8C91.4428 13.28 91.4428 9.8 91.4428 6.36C90.4295 6.36 89.4028 6.36 88.3628 6.36C87.3228 6.36 86.2962 6.36 85.2828 6.36C85.2828 5.32 85.2828 4.26667 85.2828 3.2C85.2828 2.10667 85.2828 1.04 85.2828 0C88.4561 0 91.6695 0 94.9228 0C98.1761 0 101.389 0 104.563 0C104.563 1.04 104.563 2.10667 104.563 3.2C104.563 4.26667 104.563 5.32 104.563 6.36C103.576 6.36 102.563 6.36 101.523 6.36C100.483 6.36 99.4562 6.36 98.4428 6.36C98.4428 9.8 98.4428 13.28 98.4428 16.8C98.4428 20.2933 98.4428 23.76 98.4428 27.2C97.2962 27.2 96.1361 27.2 94.9628 27.2C93.7895 27.2 92.6161 27.2 91.4428 27.2Z" fill="#915DFF"/>
<path d="M109.162 27.2C109.162 22.72 109.162 18.1867 109.162 13.6C109.162 9.01333 109.162 4.48 109.162 0C110.336 0 111.509 0 112.683 0C113.856 0 115.016 0 116.162 0C116.162 4.48 116.162 9.01333 116.162 13.6C116.162 18.1867 116.162 22.72 116.162 27.2C115.016 27.2 113.856 27.2 112.683 27.2C111.509 27.2 110.336 27.2 109.162 27.2Z" fill="#915DFF"/>
<path d="M122.18 27.2C122.18 22.72 122.18 18.1867 122.18 13.6C122.18 9.01333 122.18 4.48 122.18 0C123.353 0 124.526 0 125.7 0C126.9 0 128.073 0 129.22 0C130.633 2.53333 132.06 5.09333 133.5 7.68C134.966 10.2667 136.406 12.8267 137.82 15.36C137.82 12.8267 137.82 10.2667 137.82 7.68C137.82 5.09333 137.82 2.53333 137.82 0C138.966 0 140.113 0 141.26 0C142.406 0 143.553 0 144.7 0C144.7 4.48 144.7 9.01333 144.7 13.6C144.7 18.1867 144.7 22.72 144.7 27.2C143.553 27.2 142.38 27.2 141.18 27.2C140.006 27.2 138.833 27.2 137.66 27.2C136.246 24.6667 134.806 22.1067 133.34 19.52C131.9 16.9333 130.473 14.3733 129.06 11.84C129.06 14.3733 129.06 16.9333 129.06 19.52C129.06 22.1067 129.06 24.6667 129.06 27.2C127.913 27.2 126.766 27.2 125.62 27.2C124.473 27.2 123.326 27.2 122.18 27.2Z" fill="#915DFF"/>
<path d="M150.514 27.2C150.514 22.72 150.514 18.1867 150.514 13.6C150.514 9.01333 150.514 4.48 150.514 0C153.207 0 155.927 0 158.674 0C161.421 0 164.141 0 166.834 0C166.834 1.01333 166.834 2.05333 166.834 3.12C166.834 4.18667 166.834 5.22667 166.834 6.24C165.287 6.24 163.727 6.24 162.154 6.24C160.607 6.24 159.061 6.24 157.514 6.24C157.514 6.90667 157.514 7.57333 157.514 8.24C157.514 8.88 157.514 9.53333 157.514 10.2C158.927 10.2 160.354 10.2 161.794 10.2C163.234 10.2 164.647 10.2 166.034 10.2C166.034 11.1867 166.034 12.1867 166.034 13.2C166.034 14.2133 166.034 15.2267 166.034 16.24C164.647 16.24 163.234 16.24 161.794 16.24C160.354 16.24 158.927 16.24 157.514 16.24C157.514 17.0133 157.514 17.8 157.514 18.6C157.514 19.4 157.514 20.1867 157.514 20.96C159.061 20.96 160.607 20.96 162.154 20.96C163.727 20.96 165.287 20.96 166.834 20.96C166.834 21.9733 166.834 23.0133 166.834 24.08C166.834 25.1467 166.834 26.1867 166.834 27.2C164.141 27.2 161.421 27.2 158.674 27.2C155.927 27.2 153.207 27.2 150.514 27.2Z" fill="#915DFF"/>
<path d="M171.647 27.2C171.647 26.1867 171.647 25.16 171.647 24.12C171.647 23.08 171.647 22.0533 171.647 21.04C173.487 18.5867 175.354 16.1067 177.247 13.6C179.14 11.0933 181.007 8.61333 182.847 6.16C181.007 6.16 179.14 6.16 177.247 6.16C175.354 6.16 173.487 6.16 171.647 6.16C171.647 5.14667 171.647 4.12 171.647 3.08C171.647 2.04 171.647 1.01333 171.647 0C174.847 0 178.074 0 181.327 0C184.607 0 187.847 0 191.047 0C191.047 1.01333 191.047 2.04 191.047 3.08C191.047 4.12 191.047 5.14667 191.047 6.16C189.207 8.61333 187.34 11.0933 185.447 13.6C183.554 16.1067 181.687 18.5867 179.847 21.04C181.687 21.04 183.554 21.04 185.447 21.04C187.34 21.04 189.207 21.04 191.047 21.04C191.047 22.0533 191.047 23.08 191.047 24.12C191.047 25.16 191.047 26.1867 191.047 27.2C187.847 27.2 184.607 27.2 181.327 27.2C178.074 27.2 174.847 27.2 171.647 27.2Z" fill="#915DFF"/>
<path d="M1.4 17.2C1.816 15.856 2.232 14.496 2.648 13.12C3.072 11.744 3.492 10.384 3.908 9.04C4.38 9.04 4.856 9.04 5.336 9.04C5.824 9.04 6.304 9.04 6.776 9.04C7.192 10.384 7.608 11.744 8.024 13.12C8.448 14.496 8.868 15.856 9.284 17.2C8.94 17.2 8.588 17.2 8.228 17.2C7.876 17.2 7.524 17.2 7.172 17.2C7.092 16.944 7.016 16.688 6.944 16.432C6.872 16.168 6.796 15.908 6.716 15.652C6.26 15.652 5.8 15.652 5.336 15.652C4.88 15.652 4.424 15.652 3.968 15.652C3.888 15.908 3.812 16.168 3.74 16.432C3.668 16.688 3.592 16.944 3.512 17.2C3.168 17.2 2.816 17.2 2.456 17.2C2.104 17.2 1.752 17.2 1.4 17.2ZM4.496 13.864C4.776 13.864 5.056 13.864 5.336 13.864C5.624 13.864 5.908 13.864 6.188 13.864C6.052 13.392 5.912 12.916 5.768 12.436C5.624 11.956 5.484 11.48 5.348 11.008C5.212 11.48 5.068 11.956 4.916 12.436C4.772 12.916 4.632 13.392 4.496 13.864Z" fill="white"/>
<path d="M16.6003 16.768C15.7683 17.104 14.9923 17.296 14.2723 17.344C13.5603 17.4 12.9163 17.336 12.3403 17.152C11.7643 16.96 11.2723 16.672 10.8643 16.288C10.4563 15.904 10.1443 15.448 9.92834 14.92C9.71234 14.392 9.60434 13.816 9.60434 13.192C9.60434 12.576 9.70434 12.008 9.90434 11.488C10.1043 10.96 10.3963 10.504 10.7803 10.12C11.1723 9.736 11.6443 9.436 12.1963 9.22C12.7483 9.004 13.3763 8.9 14.0803 8.908C14.7843 8.908 15.5563 9.036 16.3963 9.292C16.3963 9.628 16.3963 9.968 16.3963 10.312C16.3963 10.648 16.3963 10.984 16.3963 11.32C15.7323 11.056 15.1163 10.904 14.5483 10.864C13.9883 10.824 13.4963 10.884 13.0723 11.044C12.6563 11.204 12.3283 11.46 12.0883 11.812C11.8563 12.156 11.7403 12.588 11.7403 13.108C11.7403 13.564 11.8243 13.968 11.9923 14.32C12.1683 14.672 12.4123 14.948 12.7243 15.148C13.0363 15.348 13.3923 15.448 13.7923 15.448C13.9283 15.448 14.0643 15.444 14.2003 15.436C14.3363 15.42 14.4683 15.396 14.5963 15.364C14.5963 15.156 14.5963 14.944 14.5963 14.728C14.5963 14.512 14.5963 14.3 14.5963 14.092C14.3723 14.092 14.1483 14.092 13.9243 14.092C13.7003 14.092 13.4763 14.092 13.2523 14.092C13.2523 13.796 13.2523 13.5 13.2523 13.204C13.2523 12.9 13.2523 12.6 13.2523 12.304C13.8043 12.304 14.3603 12.304 14.9203 12.304C15.4883 12.304 16.0483 12.304 16.6003 12.304C16.6003 13.04 16.6003 13.784 16.6003 14.536C16.6003 15.288 16.6003 16.032 16.6003 16.768Z" fill="white"/>
<path d="M18.3017 17.2C18.3017 15.856 18.3017 14.496 18.3017 13.12C18.3017 11.744 18.3017 10.384 18.3017 9.04C19.1097 9.04 19.9257 9.04 20.7497 9.04C21.5737 9.04 22.3897 9.04 23.1977 9.04C23.1977 9.344 23.1977 9.656 23.1977 9.976C23.1977 10.296 23.1977 10.608 23.1977 10.912C22.7337 10.912 22.2657 10.912 21.7937 10.912C21.3297 10.912 20.8657 10.912 20.4017 10.912C20.4017 11.112 20.4017 11.312 20.4017 11.512C20.4017 11.704 20.4017 11.9 20.4017 12.1C20.8257 12.1 21.2537 12.1 21.6857 12.1C22.1177 12.1 22.5417 12.1 22.9577 12.1C22.9577 12.396 22.9577 12.696 22.9577 13C22.9577 13.304 22.9577 13.608 22.9577 13.912C22.5417 13.912 22.1177 13.912 21.6857 13.912C21.2537 13.912 20.8257 13.912 20.4017 13.912C20.4017 14.144 20.4017 14.38 20.4017 14.62C20.4017 14.86 20.4017 15.096 20.4017 15.328C20.8657 15.328 21.3297 15.328 21.7937 15.328C22.2657 15.328 22.7337 15.328 23.1977 15.328C23.1977 15.632 23.1977 15.944 23.1977 16.264C23.1977 16.584 23.1977 16.896 23.1977 17.2C22.3897 17.2 21.5737 17.2 20.7497 17.2C19.9257 17.2 19.1097 17.2 18.3017 17.2ZM18.3737 8.284C18.5977 7.972 18.8177 7.66 19.0337 7.348C19.2577 7.028 19.4817 6.712 19.7057 6.4C20.0577 6.4 20.4097 6.4 20.7617 6.4C21.1217 6.4 21.4737 6.4 21.8177 6.4C22.0417 6.712 22.2617 7.028 22.4777 7.348C22.7017 7.66 22.9257 7.972 23.1497 8.284C22.8537 8.284 22.5497 8.284 22.2377 8.284C21.9337 8.284 21.6297 8.284 21.3257 8.284C21.2297 8.148 21.1337 8.012 21.0377 7.876C20.9497 7.732 20.8577 7.592 20.7617 7.456C20.6657 7.592 20.5697 7.732 20.4737 7.876C20.3857 8.012 20.2937 8.148 20.1977 8.284C19.9017 8.284 19.5977 8.284 19.2857 8.284C18.9817 8.284 18.6777 8.284 18.3737 8.284Z" fill="white"/>
<path d="M24.8216 17.2C24.8216 15.856 24.8216 14.496 24.8216 13.12C24.8216 11.744 24.8216 10.384 24.8216 9.04C25.1736 9.04 25.5256 9.04 25.8776 9.04C26.2376 9.04 26.5896 9.04 26.9336 9.04C27.3576 9.8 27.7856 10.568 28.2176 11.344C28.6576 12.12 29.0896 12.888 29.5136 13.648C29.5136 12.888 29.5136 12.12 29.5136 11.344C29.5136 10.568 29.5136 9.8 29.5136 9.04C29.8576 9.04 30.2016 9.04 30.5456 9.04C30.8896 9.04 31.2336 9.04 31.5776 9.04C31.5776 10.384 31.5776 11.744 31.5776 13.12C31.5776 14.496 31.5776 15.856 31.5776 17.2C31.2336 17.2 30.8816 17.2 30.5216 17.2C30.1696 17.2 29.8176 17.2 29.4656 17.2C29.0416 16.44 28.6096 15.672 28.1696 14.896C27.7376 14.12 27.3096 13.352 26.8856 12.592C26.8856 13.352 26.8856 14.12 26.8856 14.896C26.8856 15.672 26.8856 16.44 26.8856 17.2C26.5416 17.2 26.1976 17.2 25.8536 17.2C25.5096 17.2 25.1656 17.2 24.8216 17.2Z" fill="white"/>
<path d="M32.9139 13.12C32.9139 12.504 33.0099 11.944 33.2019 11.44C33.4019 10.928 33.6819 10.484 34.0419 10.108C34.4019 9.732 34.8339 9.44 35.3379 9.232C35.8419 9.024 36.3979 8.912 37.0059 8.896C37.6219 8.88 38.2779 8.976 38.9739 9.184C38.9739 9.52 38.9739 9.86 38.9739 10.204C38.9739 10.54 38.9739 10.876 38.9739 11.212C38.5019 10.988 38.0339 10.86 37.5699 10.828C37.1059 10.796 36.6859 10.86 36.3099 11.02C35.9339 11.18 35.6339 11.436 35.4099 11.788C35.1859 12.132 35.0739 12.576 35.0739 13.12C35.0739 13.664 35.1859 14.112 35.4099 14.464C35.6339 14.808 35.9339 15.06 36.3099 15.22C36.6859 15.38 37.1059 15.444 37.5699 15.412C38.0339 15.38 38.5019 15.252 38.9739 15.028C38.9739 15.364 38.9739 15.704 38.9739 16.048C38.9739 16.384 38.9739 16.72 38.9739 17.056C38.2779 17.264 37.6219 17.36 37.0059 17.344C36.3979 17.328 35.8419 17.216 35.3379 17.008C34.8339 16.8 34.4019 16.508 34.0419 16.132C33.6819 15.756 33.4019 15.316 33.2019 14.812C33.0099 14.3 32.9139 13.736 32.9139 13.12Z" fill="white"/>
<path d="M40.5931 17.2C40.5931 15.856 40.5931 14.496 40.5931 13.12C40.5931 11.744 40.5931 10.384 40.5931 9.04C40.9451 9.04 41.2971 9.04 41.6491 9.04C42.0011 9.04 42.3491 9.04 42.6931 9.04C42.6931 10.384 42.6931 11.744 42.6931 13.12C42.6931 14.496 42.6931 15.856 42.6931 17.2C42.3491 17.2 42.0011 17.2 41.6491 17.2C41.2971 17.2 40.9451 17.2 40.5931 17.2Z" fill="white"/>
<path d="M43.7183 17.2C44.1343 15.856 44.5503 14.496 44.9663 13.12C45.3903 11.744 45.8103 10.384 46.2263 9.04C46.6983 9.04 47.1743 9.04 47.6543 9.04C48.1423 9.04 48.6223 9.04 49.0943 9.04C49.5103 10.384 49.9263 11.744 50.3423 13.12C50.7663 14.496 51.1863 15.856 51.6023 17.2C51.2583 17.2 50.9063 17.2 50.5463 17.2C50.1943 17.2 49.8423 17.2 49.4903 17.2C49.4103 16.944 49.3343 16.688 49.2623 16.432C49.1903 16.168 49.1143 15.908 49.0343 15.652C48.5783 15.652 48.1183 15.652 47.6543 15.652C47.1983 15.652 46.7423 15.652 46.2863 15.652C46.2063 15.908 46.1303 16.168 46.0583 16.432C45.9863 16.688 45.9103 16.944 45.8303 17.2C45.4863 17.2 45.1343 17.2 44.7743 17.2C44.4223 17.2 44.0703 17.2 43.7183 17.2ZM46.8143 13.864C47.0943 13.864 47.3743 13.864 47.6543 13.864C47.9423 13.864 48.2263 13.864 48.5063 13.864C48.3703 13.392 48.2303 12.916 48.0863 12.436C47.9423 11.956 47.8023 11.48 47.6663 11.008C47.5303 11.48 47.3863 11.956 47.2343 12.436C47.0903 12.916 46.9503 13.392 46.8143 13.864Z" fill="white"/>
</svg>
